<svg width="24" height="24" viewBox="0 0 24 24" fill="none" xmlns="http://www.w3.org/2000/svg">
<path d="M4 7H5.117L7.008 22.124C7.03822 22.3658 7.1557 22.5883 7.33836 22.7496C7.52103 22.9109 7.75631 22.9999 8 23H16C16.2437 22.9999 16.479 22.9109 16.6616 22.7496C16.8443 22.5883 16.9618 22.3658 16.992 22.124L18.883 7H20C20.2652 7 20.5196 6.89464 20.7071 6.70711C20.8946 6.51957 21 6.26522 21 6C21 5.73478 20.8946 5.48043 20.7071 5.29289C20.5196 5.10536 20.2652 5 20 5H18.721L17.949 2.684C17.8827 2.48479 17.7553 2.31153 17.585 2.18876C17.4146 2.06599 17.21 1.99995 17 2H16C16 1.73478 15.8946 1.48043 15.7071 1.29289C15.5196 1.10536 15.2652 1 15 1H14C13.7348 1 13.4804 1.10536 13.2929 1.29289C13.1054 1.48043 13 1.73478 13 2H7C6.79004 1.99995 6.58538 2.06599 6.41505 2.18876C6.24472 2.31153 6.11735 2.48479 6.051 2.684L5.279 5H4C3.73478 5 3.48043 5.10536 3.29289 5.29289C3.10536 5.48043 3 5.73478 3 6C3 6.26522 3.10536 6.51957 3.29289 6.70711C3.48043 6.89464 3.73478 7 4 7ZM15.117 21H8.883L7.133 7H16.867L15.117 21ZM7.721 4H16.279L16.613 5H7.387L7.721 4ZM10 12C10 11.6044 10.1173 11.2178 10.3371 10.8889C10.5568 10.56 10.8692 10.3036 11.2346 10.1522C11.6001 10.0009 12.0022 9.96126 12.3902 10.0384C12.7781 10.1156 13.1345 10.3061 13.4142 10.5858C13.6939 10.8655 13.8844 11.2219 13.9616 11.6098C14.0387 11.9978 13.9991 12.3999 13.8478 12.7654C13.6964 13.1308 13.44 13.4432 13.1111 13.6629C12.7822 13.8827 12.3956 14 12 14C11.4696 14 10.9609 13.7893 10.5858 13.4142C10.2107 13.0391 10 12.5304 10 12Z" fill="#9E9E9E"/>
</svg>
