<svg width="24" height="24" viewBox="0 0 24 24" fill="none" xmlns="http://www.w3.org/2000/svg">
<g clip-path="url(#clip0_7_373)">
<path d="M21.8719 0.90564H2.13001C1.45381 0.90564 0.90564 1.45381 0.90564 2.13001V21.8719C0.90564 22.5481 1.45381 23.0963 2.13001 23.0963H21.8719C22.5481 23.0963 23.0963 22.5481 23.0963 21.8719V2.13001C23.0963 1.45381 22.5481 0.90564 21.8719 0.90564Z" fill="#3D5A98"/>
<path d="M16.215 23.0944V14.5012H19.0987L19.53 11.1525H16.215V9.01498C16.215 8.04561 16.485 7.38373 17.8743 7.38373H19.6481V4.38373C18.7892 4.29438 17.926 4.25182 17.0625 4.25623C14.5087 4.25623 12.75 5.81248 12.75 8.68311V11.1525H9.86621V14.5012H12.75V23.0944H16.215Z" fill="white"/>
</g>
<defs>
<clipPath id="clip0_7_373">
<rect width="24" height="24" fill="white"/>
</clipPath>
</defs>
</svg>
