<svg width="24" height="24" viewBox="0 0 24 24" fill="none" xmlns="http://www.w3.org/2000/svg">
<path opacity="0.987" fill-rule="evenodd" clip-rule="evenodd" d="M10.5847 0.104187C11.8724 -0.0347289 12.6344 -0.0347289 14.018 0.104187C16.4673 0.454212 18.7377 1.54734 20.5011 3.2255C19.3095 4.31305 18.1336 5.41648 16.9736 6.53547C14.7522 4.71756 12.2727 4.29796 9.53498 5.27666C7.52671 6.16846 6.12827 7.61364 5.33965 9.6122C4.05093 8.6858 2.77899 7.73783 1.52442 6.76871C1.43723 6.7244 1.33765 6.70818 1.24023 6.72241C3.2331 3.01227 6.34733 0.805626 10.5829 0.102472" fill="#F44336"/>
<path opacity="0.997" fill-rule="evenodd" clip-rule="evenodd" d="M1.23667 6.72239C1.33732 6.70752 1.43264 6.72296 1.52263 6.76869C2.7772 7.73781 4.04914 8.68578 5.33786 9.61218C5.13506 10.3909 5.00723 11.186 4.95598 11.9875C4.99979 12.7626 5.12708 13.5235 5.33786 14.2701L1.33258 17.3486C-0.411625 13.8294 -0.443596 10.2873 1.23667 6.72239Z" fill="#FFC107"/>
<path opacity="0.999" fill-rule="evenodd" clip-rule="evenodd" d="M20.311 21.0771C19.0639 20.0151 17.7583 19.019 16.3999 18.093C17.7616 17.1646 18.5881 15.8909 18.8794 14.2719H12.2063V9.79748C16.0547 9.76661 19.9013 9.79805 23.7461 9.89181C24.4755 13.7163 23.633 17.1646 21.2186 20.2367C20.9315 20.5314 20.6274 20.8119 20.311 21.0771Z" fill="#448AFF"/>
<path opacity="0.993" fill-rule="evenodd" clip-rule="evenodd" d="M5.33792 14.2719C6.79438 17.767 9.46457 19.3986 13.3485 19.1665C14.4387 19.0446 15.4841 18.6769 16.3999 18.0929C17.7593 19.0213 19.063 20.016 20.3111 21.077C18.3336 22.7928 15.8122 23.8109 13.1584 23.9651C12.5555 24.0116 11.9497 24.0116 11.3467 23.9651C6.82576 23.4506 3.48774 21.2451 1.33264 17.3486L5.33792 14.2719Z" fill="#43A047"/>
</svg>
