<svg width="80" height="13" viewBox="0 0 80 13" fill="none" xmlns="http://www.w3.org/2000/svg">
<path d="M71.5456 11.9297V0.5H73.3894V5.78317H73.5109L77.5773 0.5H79.6927L75.805 5.48218L80 11.9297H77.7488L74.49 6.83663L73.3894 8.25446V11.9297H71.5456Z" fill="#056BB0"/>
<path d="M57.0707 11.9297L60.7297 0.5H62.8094L66.4684 11.9297H64.5389L63.6741 8.97525H59.8579L59.0003 11.9297H57.0707ZM61.7088 2.62277L60.3224 7.39901H63.2167L61.8303 2.62277H61.7088Z" fill="#056BB0"/>
<path d="M44.5682 11.9297V0.5H48.8776C50.8358 0.5 52.0149 1.59307 52.0149 3.34356V3.35941C52.0149 4.55545 51.2145 5.61683 50.1783 5.79901V5.94158C51.5647 6.08416 52.5224 7.19307 52.5224 8.67426V8.6901C52.5224 10.6941 51.1788 11.9297 48.9777 11.9297H44.5682ZM48.4274 2.09208H46.4121V5.31584H48.1915C49.4994 5.31584 50.1926 4.75347 50.1926 3.71584V3.7C50.1926 2.68614 49.5422 2.09208 48.4274 2.09208ZM48.4846 6.76535H46.4121V10.3376H48.556C49.9139 10.3376 50.6357 9.71188 50.6357 8.54752V8.53168C50.6357 7.37525 49.8924 6.76535 48.4846 6.76535Z" fill="#056BB0"/>
<path d="M28.1709 11.9297V0.5H30.2863L33.3879 9.29208H33.5094L36.6038 0.5H38.7192V11.9297H37.0612V3.80297H36.9326L34.074 11.9297H32.8162L29.9575 3.80297H29.836V11.9297H28.1709Z" fill="#056BB0"/>
<path d="M13.696 11.9297L17.355 0.5H19.4346L23.0937 11.9297H21.1641L20.2994 8.97525H16.4831L15.6255 11.9297H13.696ZM18.3341 2.62277L16.9476 7.39901H19.842L18.4556 2.62277H18.3341Z" fill="#056BB0" stroke="#056BB0"/>
<path d="M4.73816 12.5C1.81522 12.5 0 10.203 0 6.51188V6.49604C0 2.78911 1.80808 0.5 4.73102 0.5C7.07509 0.5 8.85458 2.14752 9.09756 4.48416V4.54752H7.28948L7.28234 4.51584C7.01791 3.16139 6.03169 2.26634 4.73102 2.26634C2.98011 2.26634 1.88669 3.8901 1.88669 6.48812V6.50396C1.88669 9.1099 2.98011 10.7337 4.73816 10.7337C6.04598 10.7337 7.01791 9.92574 7.28234 8.66634L7.28948 8.62673H9.09756V8.68218C8.82599 10.9713 7.11797 12.5 4.73816 12.5Z" fill="#056BB0"/>
</svg>
