<svg width="24" height="24" viewBox="0 0 24 24" fill="none" xmlns="http://www.w3.org/2000/svg">
<g clip-path="url(#clip0_7_361)">
<path d="M22.125 0H1.875C0.839 0 0 0.84 0 1.875V22.125C0 23.161 0.84 24 1.875 24H22.125C23.161 24 24 23.16 24 22.125V1.875C24 0.839 23.16 0 22.125 0ZM12 18.75C11.408 18.75 10.8307 18.71 10.268 18.63C9.706 19.026 6.455 21.309 6.148 21.352C6.148 21.352 6.023 21.401 5.916 21.338C5.809 21.275 5.828 21.109 5.828 21.109C5.86 20.889 6.671 18.091 6.82 17.576C4.075 16.216 2.25 13.807 2.25 11.063C2.25 6.817 6.615 3.375 12 3.375C17.385 3.375 21.75 6.817 21.75 11.063C21.75 15.309 17.385 18.75 12 18.75ZM8.05 9.867H7.172V13.209C7.172 13.505 6.92 13.746 6.609 13.746C6.298 13.746 6.047 13.506 6.047 13.209V9.867H5.169C5.03002 9.85673 4.90006 9.79428 4.80522 9.69217C4.71038 9.59006 4.65767 9.45586 4.65767 9.3165C4.65767 9.17714 4.71038 9.04294 4.80522 8.94083C4.90006 8.83872 5.03002 8.77627 5.169 8.766H8.049C8.18798 8.77627 8.31794 8.83872 8.41278 8.94083C8.50762 9.04294 8.56033 9.17714 8.56033 9.3165C8.56033 9.45586 8.50762 9.59006 8.41278 9.69217C8.31794 9.79428 8.18798 9.85673 8.049 9.867M19.036 12.824C19.0808 12.8829 19.1135 12.95 19.1322 13.0216C19.1509 13.0932 19.1553 13.1677 19.145 13.241C19.1347 13.3141 19.11 13.3844 19.0724 13.4479C19.0348 13.5114 18.9851 13.5668 18.926 13.611C18.8288 13.6848 18.7101 13.7249 18.588 13.725C18.5007 13.7253 18.4146 13.7052 18.3365 13.6663C18.2583 13.6274 18.1904 13.5708 18.138 13.501L16.819 11.754L16.624 11.949V13.176C16.6237 13.3251 16.5645 13.468 16.4592 13.5735C16.3539 13.679 16.2111 13.7385 16.062 13.739C15.9127 13.739 15.7695 13.6797 15.6639 13.5741C15.5583 13.4685 15.499 13.3253 15.499 13.176V9.328C15.5051 9.18292 15.5671 9.04581 15.6719 8.94532C15.7767 8.84483 15.9163 8.78872 16.0615 8.78872C16.2067 8.78872 16.3463 8.84483 16.4511 8.94532C16.5559 9.04581 16.6179 9.18292 16.624 9.328V10.538L18.194 8.968C18.277 8.88657 18.3888 8.84127 18.505 8.842C18.645 8.842 18.787 8.903 18.893 9.009C18.9891 9.10388 19.0477 9.23032 19.058 9.365C19.0631 9.42771 19.0546 9.49078 19.0332 9.54995C19.0118 9.60912 18.978 9.66302 18.934 9.708L17.652 10.989L19.036 12.824ZM10.686 9.322C10.591 9.052 10.303 8.774 9.936 8.766C9.57 8.774 9.282 9.052 9.187 9.321L7.842 12.862C7.671 13.392 7.82 13.59 7.975 13.662C8.08749 13.7118 8.20899 13.738 8.332 13.739C8.567 13.739 8.746 13.644 8.8 13.491L9.079 12.761H10.794L11.073 13.491C11.127 13.644 11.306 13.739 11.541 13.739C11.6641 13.7377 11.7856 13.7111 11.898 13.661C12.053 13.59 12.202 13.393 12.031 12.861L10.686 9.322ZM9.375 11.765L9.937 10.169L10.498 11.765H9.375ZM15.28 13.148C15.2763 13.2877 15.2176 13.4203 15.1167 13.5169C15.0157 13.6136 14.8807 13.6664 14.741 13.664H12.937C12.7971 13.6667 12.6618 13.6139 12.5607 13.5173C12.4595 13.4206 12.4007 13.2879 12.397 13.148V9.328C12.397 9.018 12.655 8.766 12.972 8.766C13.289 8.766 13.546 9.018 13.546 9.328V12.633H14.741C15.038 12.633 15.281 12.864 15.281 13.148" fill="#FFC107"/>
</g>
<defs>
<clipPath id="clip0_7_361">
<rect width="24" height="24" fill="white"/>
</clipPath>
</defs>
</svg>
