<svg xmlns="http://www.w3.org/2000/svg" viewBox="0 0 1000 250.17">
  <defs>
    <style>
      .cls-1 {
        fill: #142849;
      }
    </style>
  </defs>
  <g>
    <g>
      <g>
        <g>
          <g>
            <path class="cls-1" d="M27.53,83.41h93.4a8,8,0,0,1,7.94,8v45.43a8,8,0,0,1-7.94,8H19.59V91.36A7.94,7.94,0,0,1,27.53,83.41Zm83.07,45.76c.32-7,.32-22.24,0-29.87-10.33-.48-61.3-.32-72.74,0-.32,7.15-.48,21.77,0,29.87C47.23,129.65,101.7,129.49,110.6,129.17ZM115.41,2.86h2a8.24,8.24,0,0,1,8.24,8.24V67.55a8.23,8.23,0,0,1-8.24,8.23h-2a8.23,8.23,0,0,1-8.24-8.23V11.1A8.24,8.24,0,0,1,115.41,2.86Z"/>
            <path class="cls-1" d="M206.7,115.55h0a8.26,8.26,0,0,1-8.26,8.26h-55V19.48a8.26,8.26,0,0,1,8.26-8.27h40.43a8.26,8.26,0,0,1,8.26,8.27v.15a8.26,8.26,0,0,1-8.26,8.27H161.35v79.39h37.09A8.26,8.26,0,0,1,206.7,115.55Z"/>
            <path class="cls-1" d="M283,34.64C283,14.78,296.32,3.5,326,3.5s43.06,11.28,43.06,31.14c0,20.17-13.34,31.14-43.06,31.14S283,54.81,283,34.64Zm17.37,68.79h89.93V91.83H300.66a7.46,7.46,0,0,1-7.47-7.46v-.16a7.46,7.46,0,0,1,7.47-7.47H401.39a7.46,7.46,0,0,1,7.46,7.47v26.21a7.47,7.47,0,0,1-7.46,7.47H311.46V129.8h92.63a7.47,7.47,0,0,1,7.46,7.47h0a7.46,7.46,0,0,1-7.46,7.47H292.87V110.9A7.46,7.46,0,0,1,300.34,103.43Zm50.31-68.79c0-9.54-6.51-15.26-24.63-15.26S301.4,25.1,301.4,34.64,307.75,49.89,326,49.89,350.65,44.17,350.65,34.64ZM398.37,2.86h2.54a7.94,7.94,0,0,1,7.94,7.94V61.17a7.93,7.93,0,0,1-7.94,7.94h-2.54a7.94,7.94,0,0,1-7.95-7.94V10.8A8,8,0,0,1,398.37,2.86Z"/>
            <path class="cls-1" d="M547.79,90.33H431a7.78,7.78,0,0,1-7.79-7.78h0A7.78,7.78,0,0,1,431,74.77H547.79a7.78,7.78,0,0,1,7.78,7.78h0A7.78,7.78,0,0,1,547.79,90.33ZM553.28,137h0a8.11,8.11,0,0,1-8.1,8.11H432.53V107.79a8.1,8.1,0,0,1,8.17-8.1l2.71,0a8.1,8.1,0,0,1,8,8.1v21h93.74A8.1,8.1,0,0,1,553.28,137ZM434.12,60.1V14.66a8,8,0,0,1,7.94-7.94h94.61a8,8,0,0,1,7.94,7.94v37.5a7.94,7.94,0,0,1-7.94,7.94ZM527,45V22H451.76V45Z"/>
            <g>
              <path class="cls-1" d="M652.74,14.14h-28V9.77A9.77,9.77,0,0,0,615,0h0a9.77,9.77,0,0,0-9.77,9.77v4.37h-30a7.79,7.79,0,0,0-7.79,7.79h0a7.78,7.78,0,0,0,7.79,7.78h77.53a7.78,7.78,0,0,0,7.79-7.78h0A7.79,7.79,0,0,0,652.74,14.14Z"/>
              <path class="cls-1" d="M624.78,95.8c24.15-1.74,33.37-10.64,33.37-29.39,0-21.29-11.76-29.87-43.22-29.87s-43.21,8.58-43.21,29.87c0,18.75,9.37,27.65,33.68,29.39-.16,6.2-.16,20.82-.16,20.82H570.09a8.09,8.09,0,0,0-8.1,8.1h0a8.1,8.1,0,0,0,8.1,8.1h91.75a8.1,8.1,0,0,0,8.1-8.1h0a8.1,8.1,0,0,0-8.1-8.1H624.78ZM589.35,66.41c0-9.85,5.56-14.46,25.58-14.46s25.58,4.61,25.58,14.46c0,9.69-5.56,14.3-25.58,14.3S589.35,76.1,589.35,66.41Z"/>
              <rect class="cls-1" x="673.4" y="2.86" width="18.59" height="142.04" rx="9.29"/>
            </g>
            <path class="cls-1" d="M758.09,71.65l25.46,47.76a8.16,8.16,0,0,1-3.22,11l-.81.45a8.16,8.16,0,0,1-11.19-3.31L748.24,89.45l-19.79,40.11a8.16,8.16,0,0,1-10.84,3.75l-.56-.27a8.15,8.15,0,0,1-3.8-10.94l25-50.92V24.31L722,24.1a8.16,8.16,0,0,1-8.05-8.16h0a8.15,8.15,0,0,1,8.15-8.15H774.4a8.16,8.16,0,0,1,8.16,8.15h0a8.17,8.17,0,0,1-8,8.16l-16.42.21Z"/>
            <g>
              <rect class="cls-1" x="959.46" y="2.86" width="18.43" height="102.16" rx="9.21"/>
              <path class="cls-1" d="M886.63,128.69v-28a7.94,7.94,0,0,0-8-7.94h-2.54a7.94,7.94,0,0,0-7.95,7.94v44l104.45.15a8,8,0,0,0,8-7.95v-.3a8,8,0,0,0-7.94-7.95Z"/>
              <path class="cls-1" d="M938.18,63.64h-59.5V23.93h53.15a7.87,7.87,0,0,0,7.86-7.87h0a7.86,7.86,0,0,0-7.86-7.86H868.11a7.86,7.86,0,0,0-7.86,7.86V79.37h77.93a7.86,7.86,0,0,0,7.87-7.86h0A7.87,7.87,0,0,0,938.18,63.64Z"/>
            </g>
            <g>
              <g>
                <rect class="cls-1" x="251.59" y="5.51" width="16.35" height="139.39" rx="8.17"/>
                <rect class="cls-1" x="214.47" y="5.51" width="16.35" height="139.39" rx="8.17"/>
              </g>
              <circle class="cls-1" cx="241.4" cy="66.79" r="8.66"/>
            </g>
            <g>
              <g>
                <rect class="cls-1" x="827.18" y="5.51" width="16.35" height="139.39" rx="8.17"/>
                <rect class="cls-1" x="790.06" y="5.51" width="16.35" height="139.39" rx="8.17"/>
              </g>
              <circle class="cls-1" cx="816.99" cy="66.79" r="8.66"/>
              <circle class="cls-1" cx="703.5" cy="70.06" r="9.81"/>
              <circle class="cls-1" cx="990.19" cy="48.88" r="9.81"/>
            </g>
            <g>
              <path class="cls-1" d="M61.12,244.5a23.72,23.72,0,0,1-6.64,5.67c-7.4-7.7-18-19.17-25.89-28,0,11.09,0,21.43-.07,26.19a29.56,29.56,0,0,1-8.91,0c-.23-10.35-.23-49.52,0-61.21a35,35,0,0,1,8.91,0c.07,4.6.07,13.88.07,23.92,8.08-9.06,19-21,23.17-25.21a21.62,21.62,0,0,1,6.64,5.36c-5.13,6.11-18.34,20.23-23.92,25.36C40.89,222.85,55.16,237.86,61.12,244.5Z"/>
              <path class="cls-1" d="M65.37,186.24a47.13,47.13,0,0,1,9.2,0,85.56,85.56,0,0,1,0,9.06,62.79,62.79,0,0,1-9.2.07C65.22,192.2,65.22,189.33,65.37,186.24ZM65.74,204a27.1,27.1,0,0,1,8.53,0c.15,10.72.15,34.35,0,44.31a23.07,23.07,0,0,1-8.53,0C65.52,238.69,65.52,215,65.74,204Z"/>
              <path class="cls-1" d="M141,248.28a41.29,41.29,0,0,1-8.61,0c0-7.1.08-20.38,0-27.25-.07-7.32-3.09-10.11-7.39-10.11s-7.63,3.62-8.83,8.15c.07,8.83,0,21.89,0,29.21a40.53,40.53,0,0,1-8.53,0c0-7.55.07-19.62,0-27.25-.08-7.09-2.87-10.11-7.63-10.11-4.07,0-8,3.62-9.28,8.45.08,10.72,0,22.87-.15,28.91a27.1,27.1,0,0,1-8.53,0c-.15-9.59-.15-33.28,0-44.23a27.1,27.1,0,0,1,8.53,0c0,1.28.08,2.87.08,4.53a13.74,13.74,0,0,1,11.54-5.66c5.44,0,9.89,2.49,12.23,7.4a13.92,13.92,0,0,1,12.76-7.4c7.92,0,13.81,5.51,13.88,16.15C141.15,227.3,141.07,241.49,141,248.28Z"/>
              <path class="cls-1" d="M176.6,208.05c-.07-7.24-.15-16.9-.07-21.81a27.55,27.55,0,0,1,8.6,0c.15,10.94.15,51.77,0,62.12a31,31,0,0,1-8.3,0c-.08-1.29-.08-2.72-.08-4.23-2.64,3.55-6.64,5.36-11.77,5.36-10.79,0-18.11-6.87-18.11-23.32s7.32-23.25,18.11-23.25C170,202.92,174.11,204.73,176.6,208.05Zm-.15,19.4v-2.94c0-10.42-4.45-13.59-10.41-13.59-6.57,0-10.49,3.77-10.49,15.25s3.92,15.32,10.49,15.32C172,241.49,176.45,238.32,176.45,227.45Z"/>
              <path class="cls-1" d="M225.69,248.36a31.15,31.15,0,0,1-8.3,0l-.23-3.78c-3,3.48-7,4.91-12.15,4.91-8.23,0-14.57-4.15-14.57-13.21s5.59-13.74,16.68-14.11c3.25-.08,6.94-.15,9.89-.08v-1.36c-.08-7.39-3-9.88-9.13-9.88a24.2,24.2,0,0,0-11.55,2.79,18.87,18.87,0,0,1-2.72-7.48c5.81-2.41,9.36-3.32,16-3.24,9,0,16,5.66,16.08,16.6C225.76,227.9,225.69,241.71,225.69,248.36Zm-8.6-13.52V229c-2.57,0-5.67,0-9.29.07-5.81.15-8.68,2.27-8.68,6.49s2.79,6.57,7.78,6.57C212.4,242.09,216.18,239.52,217.09,234.84Z"/>
              <path class="cls-1" d="M231.11,226.32c0-15.32,6.33-23.4,19.77-23.4,14.26,0,19.77,10.64,18.49,26.49-3.77.3-24.08.15-29.36,0,0,8.08,4.6,12.15,11.32,12.15,5.13,0,8.61-1.43,11.4-4.45a27.39,27.39,0,0,1,5.51,5.58c-3.62,4.46-9.06,6.8-17.13,6.8C238.88,249.49,231.11,242.47,231.11,226.32Zm19.77-15.55c-7.32,0-10.57,4.23-10.87,11.47h20.83C260.84,214.92,257.14,210.77,250.88,210.77Z"/>
              <path class="cls-1" d="M275,186.24a47.23,47.23,0,0,1,9.21,0c.15,3.09.15,6,0,9.06a62.92,62.92,0,0,1-9.21.07C274.87,192.2,274.87,189.33,275,186.24ZM275.4,204a27.1,27.1,0,0,1,8.53,0c.15,10.72.15,34.35,0,44.31a23.07,23.07,0,0,1-8.53,0C275.17,238.69,275.17,215,275.4,204Z"/>
              <path class="cls-1" d="M291.81,186.24a27.62,27.62,0,0,1,8.61,0c.15,12.07.15,51.93,0,62.12a27.61,27.61,0,0,1-8.61,0C291.66,238,291.66,198.09,291.81,186.24Z"/>
              <path class="cls-1" d="M322,217.86c0-22,10-31.62,25.59-31.62,7.84,0,13.35,1.81,18.71,7.24a17.92,17.92,0,0,1-5.28,6.27c-3.47-3.25-7.4-5-13.43-5-9.74,0-16.46,6.34-16.46,23.09s6.72,23.1,16.76,23.1c6.11,0,10.56-1.81,14.19-5a19.45,19.45,0,0,1,5.2,6.34c-5.51,5.21-11.24,7.17-19.39,7.17C332,249.49,322,239.9,322,217.86Z"/>
              <path class="cls-1" d="M407.18,248.36a27.11,27.11,0,0,1-8.53,0c0-1.44-.07-3.18-.07-5.06-2.64,3.77-6.57,6.11-12.46,6.11-8.6,0-15.09-6-15.16-17.58-.08-8.38,0-20.91,0-27.78a41.86,41.86,0,0,1,8.67,0c0,7.1,0,18.64.08,25.74.08,8.38,3.4,11.62,8.68,11.62,4.68,0,8.75-3.55,10.11-8.45-.07-10.72,0-22.87.15-28.91a27.09,27.09,0,0,1,8.53,0C407.33,213.64,407.33,237.34,407.18,248.36Z"/>
              <path class="cls-1" d="M415,186.24a27.61,27.61,0,0,1,8.61,0c.15,12.07.15,51.93,0,62.12a27.61,27.61,0,0,1-8.61,0C414.83,238,414.83,198.09,415,186.24Z"/>
              <path class="cls-1" d="M454.53,247.6a23.28,23.28,0,0,1-9.74,1.89c-5.66,0-9.2-3.25-9.43-10.87-.15-3.55-.15-15.62-.08-26.72-2.64,0-5,0-6.79-.07a45.9,45.9,0,0,1,0-7.78c1.81-.08,4.23-.08,6.79-.08.08-4.67.08-8.6.15-10.86a36.41,36.41,0,0,1,8.61,0c0,2.26-.08,6.26-.08,10.86,3.32,0,6.27,0,8.31.08a38.89,38.89,0,0,1,0,7.78c-2,.07-5.06.07-8.31.07,0,10.19,0,20.91.16,24.38.15,4.53,2,6.19,8.22,3.7A33.87,33.87,0,0,1,454.53,247.6Z"/>
              <path class="cls-1" d="M494,248.36a27.11,27.11,0,0,1-8.53,0c0-1.44-.08-3.18-.08-5.06-2.64,3.77-6.56,6.11-12.45,6.11-8.61,0-15.1-6-15.17-17.58-.08-8.38,0-20.91,0-27.78a42,42,0,0,1,8.68,0c0,7.1,0,18.64.07,25.74.08,8.38,3.4,11.62,8.68,11.62,4.68,0,8.76-3.55,10.12-8.45-.08-10.72,0-22.87.15-28.91a27.09,27.09,0,0,1,8.53,0C494.14,213.64,494.14,237.34,494,248.36Z"/>
              <path class="cls-1" d="M526.92,203.52a35.69,35.69,0,0,1-1.66,8.53c-7.85-2.19-14,2-15.25,8.61,0,10.49,0,20.15-.07,27.7a27.56,27.56,0,0,1-8.6,0c-.23-11-.16-34.5,0-44.31a26.6,26.6,0,0,1,8.45,0c.07,1.28.15,3.17.15,5.13a14.17,14.17,0,0,1,6.87-5.51A16.07,16.07,0,0,1,526.92,203.52Z"/>
              <path class="cls-1" d="M564,248.36a31.15,31.15,0,0,1-8.3,0l-.23-3.78c-3,3.48-7,4.91-12.15,4.91-8.23,0-14.57-4.15-14.57-13.21s5.59-13.74,16.68-14.11c3.25-.08,6.94-.15,9.89-.08v-1.36c-.08-7.39-3-9.88-9.14-9.88a24.19,24.19,0,0,0-11.54,2.79,18.87,18.87,0,0,1-2.72-7.48c5.81-2.41,9.36-3.32,16-3.24,9,0,16,5.66,16.08,16.6C564.08,227.9,564,241.71,564,248.36Zm-8.61-13.52V229c-2.56,0-5.66,0-9.28.07-5.81.15-8.68,2.27-8.68,6.49s2.79,6.57,7.77,6.57C550.72,242.09,554.5,239.52,555.4,234.84Z"/>
              <path class="cls-1" d="M571.07,186.24a27.55,27.55,0,0,1,8.6,0c.15,12.07.15,51.93,0,62.12a27.54,27.54,0,0,1-8.6,0C570.92,238,570.92,198.09,571.07,186.24Z"/>
              <path class="cls-1" d="M612.65,195.52c.08,3.25.08,10.27.15,18.12,7.63-.08,20.76-.08,24.38.15a39.13,39.13,0,0,1,0,8.38c-3.62.15-16.68.15-24.38.07,0,10.94-.07,21.81-.15,26.12a32.06,32.06,0,0,1-9.28,0c-.15-11.25-.15-49.37,0-61.21,6.57-.23,31.62-.23,37.13,0a34,34,0,0,1,0,8.37C637,195.67,615.82,195.6,612.65,195.52Z"/>
              <path class="cls-1" d="M643,226.17c0-15.78,6.94-23.25,20.23-23.25s20.3,7.47,20.3,23.25-7,23.32-20.3,23.32S643,241.94,643,226.17Zm31.85,0c0-11.17-4.15-15.32-11.62-15.32s-11.63,4.15-11.63,15.32,4.23,15.39,11.63,15.39S674.84,237.41,674.84,226.17Z"/>
              <path class="cls-1" d="M725.54,248.36a27.11,27.11,0,0,1-8.53,0c0-1.44-.07-3.18-.07-5.06-2.65,3.77-6.57,6.11-12.46,6.11-8.6,0-15.09-6-15.17-17.58-.07-8.38,0-20.91,0-27.78a42,42,0,0,1,8.68,0c0,7.1,0,18.64.08,25.74.07,8.38,3.39,11.62,8.68,11.62,4.68,0,8.75-3.55,10.11-8.45-.08-10.72,0-22.87.15-28.91a27.09,27.09,0,0,1,8.53,0C725.69,213.64,725.69,237.34,725.54,248.36Z"/>
              <path class="cls-1" d="M769.45,248.28a41.86,41.86,0,0,1-8.67,0c.07-7.1.07-18.64,0-25.74-.08-8.3-3.25-11.62-8.53-11.62-4.68,0-9,3.62-10.34,8.53.07,10.72,0,22.79-.15,28.83a27.09,27.09,0,0,1-8.53,0c-.15-9.59-.15-33.28,0-44.23a27.11,27.11,0,0,1,8.53,0c0,1.43.07,3.17.07,5.06,2.72-3.85,6.79-6.19,12.68-6.19,8.68,0,14.87,6,14.94,17.59C769.53,228.88,769.45,241.41,769.45,248.28Z"/>
              <path class="cls-1" d="M804.91,208.05c-.07-7.24-.15-16.9-.07-21.81a27.55,27.55,0,0,1,8.6,0c.15,10.94.15,51.77,0,62.12a31,31,0,0,1-8.3,0c-.08-1.29-.08-2.72-.08-4.23-2.64,3.55-6.64,5.36-11.77,5.36-10.79,0-18.12-6.87-18.12-23.32s7.33-23.25,18.12-23.25C798.27,202.92,802.42,204.73,804.91,208.05Zm-.15,19.4v-2.94c0-10.42-4.45-13.59-10.42-13.59-6.56,0-10.49,3.77-10.49,15.25s3.93,15.32,10.49,15.32C800.31,241.49,804.76,238.32,804.76,227.45Z"/>
              <path class="cls-1" d="M854,248.36a31.22,31.22,0,0,1-8.31,0l-.22-3.78c-3,3.48-7,4.91-12.15,4.91-8.23,0-14.57-4.15-14.57-13.21s5.58-13.74,16.68-14.11c3.25-.08,6.94-.15,9.89-.08v-1.36c-.08-7.39-3-9.88-9.14-9.88a24.19,24.19,0,0,0-11.54,2.79,18.72,18.72,0,0,1-2.72-7.48c5.81-2.41,9.36-3.32,16-3.24,9,0,16,5.66,16.08,16.6C854.07,227.9,854,241.71,854,248.36Zm-8.61-13.52V229c-2.56,0-5.66,0-9.28.07-5.81.15-8.68,2.27-8.68,6.49s2.79,6.57,7.77,6.57C840.71,242.09,844.49,239.52,845.39,234.84Z"/>
              <path class="cls-1" d="M883.84,247.6a23.23,23.23,0,0,1-9.73,1.89c-5.66,0-9.21-3.25-9.44-10.87-.15-3.55-.15-15.62-.07-26.72-2.64,0-5.06,0-6.8-.07a45.9,45.9,0,0,1,0-7.78c1.82-.08,4.23-.08,6.8-.08.07-4.67.07-8.6.15-10.86a36.32,36.32,0,0,1,8.6,0c0,2.26-.07,6.26-.07,10.86,3.32,0,6.26,0,8.3.08a38.16,38.16,0,0,1,0,7.78c-2,.07-5.06.07-8.3.07,0,10.19,0,20.91.15,24.38.15,4.53,2,6.19,8.22,3.7A33.35,33.35,0,0,1,883.84,247.6Z"/>
              <path class="cls-1" d="M888.22,186.24a47.23,47.23,0,0,1,9.21,0c.15,3.09.15,6,0,9.06a62.93,62.93,0,0,1-9.21.07C888.07,192.2,888.07,189.33,888.22,186.24ZM888.6,204a27,27,0,0,1,8.52,0c.15,10.72.15,34.35,0,44.31a23,23,0,0,1-8.52,0C888.37,238.69,888.37,215,888.6,204Z"/>
              <path class="cls-1" d="M903.17,226.17c0-15.78,7-23.25,20.23-23.25s20.31,7.47,20.31,23.25-7,23.32-20.31,23.32S903.17,241.94,903.17,226.17Zm31.86,0c0-11.17-4.16-15.32-11.63-15.32s-11.62,4.15-11.62,15.32,4.23,15.39,11.62,15.39S935,237.41,935,226.17Z"/>
              <path class="cls-1" d="M986,248.28a42,42,0,0,1-8.68,0c.08-7.1.08-18.64,0-25.74-.07-8.3-3.24-11.62-8.53-11.62-4.68,0-9,3.62-10.34,8.53.08,10.72,0,22.79-.15,28.83a27.09,27.09,0,0,1-8.53,0c-.15-9.59-.15-33.28,0-44.23a27.11,27.11,0,0,1,8.53,0c0,1.43.08,3.17.08,5.06,2.71-3.85,6.79-6.19,12.68-6.19,8.68,0,14.86,6,14.94,17.59C986.07,228.88,986,241.41,986,248.28Z"/>
            </g>
          </g>
          <path class="cls-1" d="M70.29,70.37a8.17,8.17,0,0,1-8.17-8.18V24.6H8.17a8.18,8.18,0,0,1,0-16.35H70.29a8.17,8.17,0,0,1,8.17,8.17V62.19A8.17,8.17,0,0,1,70.29,70.37Z"/>
        </g>
        <path class="cls-1" d="M482.87,78.54h16.35a0,0,0,0,1,0,0v27.79A8.17,8.17,0,0,1,491,114.5h0a8.17,8.17,0,0,1-8.17-8.17V78.54A0,0,0,0,1,482.87,78.54Z"/>
      </g>
    </g>
  </g>
</svg>
